<svg xmlns="http://www.w3.org/2000/svg" viewBox="0 0 512 512" width="512" height="512" role="img" aria-label="世界杯 2026">
  <defs>
    <linearGradient id="bg" x1="0" y1="0" x2="1" y2="1">
      <stop offset="0" stop-color="#868CFF"/>
      <stop offset="1" stop-color="#4318FF"/>
    </linearGradient>
  </defs>
  <rect width="512" height="512" rx="115" fill="url(#bg)"/>
  <g fill="#ffffff">
    <path d="M176 116 h160 v58 a80 80 0 0 1 -160 0 z"/>
    <path d="M176 130 h-34 a30 30 0 0 0 0 60 h12 v-22 h-12 a8 8 0 0 1 0 -16 h34 z"/>
    <path d="M336 130 h34 a30 30 0 0 1 0 60 h-12 v-22 h12 a8 8 0 0 0 0 -16 h-34 z"/>
    <rect x="244" y="228" width="24" height="40"/>
    <rect x="204" y="268" width="104" height="20" rx="6"/>
    <rect x="224" y="288" width="64" height="22" rx="6"/>
  </g>
  <text x="256" y="394" font-family="Arial, Helvetica, sans-serif" font-size="92" font-weight="700" fill="#ffffff" text-anchor="middle">2026</text>
</svg>
